# Blender 3.3.0
# www.blender.org
mtllib pista.mtl
o Cylinder
v 212.676529 -60.566479 -189.641937
v 212.676529 5.002491 -189.641937
v 274.344727 -60.566479 -185.863876
v 274.344727 5.002491 -185.863876
v 333.643005 -60.566479 -174.674881
v 333.643005 5.002491 -174.674881
v 388.292664 -60.566479 -156.504944
v 388.292664 5.002491 -156.504944
v 436.193420 -60.566479 -132.052307
v 436.193420 5.002491 -132.052307
v 475.504608 -60.566479 -102.256714
v 475.504608 5.002491 -102.256714
v 504.715454 -60.566479 -68.263138
v 504.715454 5.002491 -68.263138
v 522.703369 -60.566479 -31.377964
v 522.703369 5.002491 -31.377964
v 528.777161 -60.566479 6.981335
v 528.777161 5.002491 6.981335
v 522.703369 -60.566479 45.340633
v 522.703369 5.002491 45.340633
v 504.715454 -60.566479 82.225815
v 504.715454 5.002491 82.225815
v 475.504608 -60.566479 116.219376
v 475.504608 5.002491 116.219376
v 436.193420 -60.566479 146.014984
v 436.193420 5.002491 146.014984
v 388.292664 -60.566479 170.467621
v 388.292664 5.002491 170.467621
v 333.643005 -60.566479 188.637558
v 333.643005 5.002491 188.637558
v 274.344727 -60.566479 199.826553
v 274.344727 5.002491 199.826553
v 212.676529 -60.566479 203.604614
v 212.676529 5.002491 203.604614
v 151.008362 -60.566479 199.826553
v 151.008362 5.002491 199.826553
v 91.710045 -60.566479 188.637558
v 91.710045 5.002491 188.637558
v 37.060425 -60.566479 170.467621
v 37.060425 5.002491 170.467621
v -10.840378 -60.566479 146.014984
v -10.840378 5.002491 146.014984
v -50.151550 -60.566479 116.219376
v -50.151550 5.002491 116.219376
v -79.362366 -60.566479 82.225815
v -79.362366 5.002491 82.225815
v -97.350311 -60.566479 45.340633
v -97.350311 5.002491 45.340633
v -103.424103 -60.566479 6.981335
v -103.424103 5.002491 6.981335
v -97.350311 -60.566479 -31.377964
v -97.350311 5.002491 -31.377964
v -79.362366 -60.566479 -68.263138
v -79.362366 5.002491 -68.263138
v -50.151550 -60.566479 -102.256714
v -50.151550 5.002491 -102.256714
v -10.840378 -60.566479 -132.052307
v -10.840378 5.002491 -132.052307
v 37.060425 -60.566479 -156.504944
v 37.060425 5.002491 -156.504944
v 91.710045 -60.566479 -174.674881
v 91.710045 5.002491 -174.674881
v 151.008362 -60.566479 -185.863876
v 151.008362 5.002491 -185.863876
v -11.413269 5.002491 6.981335
v 5.644562 5.002491 53.978039
v -7.107452 5.002491 30.940048
v -7.107452 5.002491 -16.977379
v 26.352661 5.002491 75.209976
v 26.352661 5.002491 -61.247303
v 5.644562 5.002491 -40.015369
v 54.221100 5.002491 -79.857254
v 126.921066 5.002491 120.441406
v 88.178902 5.002491 109.092712
v 88.178902 5.002491 -95.130035
v 168.958786 5.002491 -113.467239
v 256.394287 5.002491 -113.467239
v 212.676529 5.002491 -115.826965
v 126.921066 5.002491 -106.478745
v 54.221100 5.002491 93.819916
v 168.958786 5.002491 127.429916
v 256.394287 5.002491 127.429916
v 212.676529 5.002491 129.789642
v 337.174164 5.002491 -95.130035
v 337.174164 5.002491 109.092712
v 298.432007 5.002491 -106.478745
v 298.432007 5.002491 120.441406
v 399.000397 5.002491 -61.247303
v 399.000397 5.002491 75.209976
v 371.131958 5.002491 -79.857254
v 436.766357 5.002491 6.981335
v 432.460510 5.002491 -16.977379
v 419.708496 5.002491 53.978039
v 432.460510 5.002491 30.940048
v 419.708496 5.002491 -40.015369
v 371.131958 5.002491 93.819916
v 212.676529 -60.566479 -115.826965
v 256.394287 -60.566479 -113.467239
v 298.432007 -60.566479 120.441406
v 337.174164 -60.566479 -95.130035
v 337.174164 -60.566479 109.092712
v 256.394287 -60.566479 127.429916
v 298.432007 -60.566479 -106.478745
v 399.000397 -60.566479 75.209976
v 371.131958 -60.566479 93.819916
v 399.000397 -60.566479 -61.247303
v 436.766357 -60.566479 6.981335
v 432.460510 -60.566479 -16.977379
v 419.708496 -60.566479 53.978039
v 432.460510 -60.566479 30.940048
v 419.708496 -60.566479 -40.015369
v 371.131958 -60.566479 -79.857254
v -11.413269 -60.566479 6.981335
v 5.644562 -60.566479 53.978039
v -7.107452 -60.566479 30.940048
v -7.107452 -60.566479 -16.977379
v 26.352661 -60.566479 75.209976
v 26.352661 -60.566479 -61.247303
v 54.221100 -60.566479 93.819916
v 5.644562 -60.566479 -40.015369
v 126.921066 -60.566479 -106.478745
v 88.178902 -60.566479 109.092712
v 88.178902 -60.566479 -95.130035
v 168.958786 -60.566479 -113.467239
v 212.676529 -60.566479 129.789642
v 168.958786 -60.566479 127.429916
v 126.921066 -60.566479 120.441406
v 54.221100 -60.566479 -79.857254
vn 0.0611 -0.0000 -0.9981
vn 0.1854 -0.0000 -0.9827
vn 0.3155 -0.0000 -0.9489
vn 0.4547 -0.0000 -0.8907
vn 0.6040 -0.0000 -0.7970
vn 0.7584 -0.0000 -0.6517
vn 0.8988 -0.0000 -0.4383
vn 0.9877 -0.0000 -0.1564
vn 0.9877 -0.0000 0.1564
vn 0.8988 -0.0000 0.4383
vn 0.7584 -0.0000 0.6517
vn 0.6040 -0.0000 0.7970
vn 0.4547 -0.0000 0.8907
vn 0.3155 -0.0000 0.9489
vn 0.1854 -0.0000 0.9827
vn 0.0611 -0.0000 0.9981
vn -0.0611 -0.0000 0.9981
vn -0.1854 -0.0000 0.9827
vn -0.3155 -0.0000 0.9489
vn -0.4547 -0.0000 0.8907
vn -0.6040 -0.0000 0.7970
vn -0.7584 -0.0000 0.6517
vn -0.8988 -0.0000 0.4383
vn -0.9877 -0.0000 0.1564
vn -0.9877 -0.0000 -0.1564
vn -0.8988 -0.0000 -0.4383
vn -0.7584 -0.0000 -0.6517
vn -0.6040 -0.0000 -0.7970
vn -0.4547 -0.0000 -0.8907
vn -0.3155 -0.0000 -0.9489
vn -0.0000 1.0000 -0.0000
vn -0.1854 -0.0000 -0.9827
vn -0.0611 -0.0000 -0.9981
vn -0.0000 -1.0000 -0.0000
vn -0.0539 -0.0000 0.9985
vn -0.1640 -0.0000 0.9865
vn -0.2811 -0.0000 0.9597
vn -0.4102 -0.0000 0.9120
vn -0.5553 -0.0000 0.8316
vn -0.7159 -0.0000 0.6982
vn -0.8749 -0.0000 0.4843
vn -0.9842 -0.0000 0.1769
vn -0.9842 -0.0000 -0.1769
vn -0.8749 -0.0000 -0.4843
vn -0.7159 -0.0000 -0.6982
vn -0.5553 -0.0000 -0.8316
vn -0.4102 -0.0000 -0.9120
vn -0.2811 -0.0000 -0.9597
vn -0.1640 -0.0000 -0.9865
vn -0.0539 -0.0000 -0.9985
vn 0.0539 -0.0000 -0.9985
vn 0.1640 -0.0000 -0.9865
vn 0.2811 -0.0000 -0.9597
vn 0.4102 -0.0000 -0.9120
vn 0.5553 -0.0000 -0.8316
vn 0.7159 -0.0000 -0.6982
vn 0.8749 -0.0000 -0.4843
vn 0.9842 -0.0000 -0.1769
vn 0.9842 -0.0000 0.1769
vn 0.8749 -0.0000 0.4843
vn 0.7159 -0.0000 0.6982
vn 0.5553 -0.0000 0.8316
vn 0.4102 -0.0000 0.9120
vn 0.2811 -0.0000 0.9597
vn 0.1640 -0.0000 0.9865
vn 0.0539 -0.0000 0.9985
vt 1.000000 0.500000
vt 0.000000 0.500000
vt 0.750000 0.490000
vt 1.000000 1.000000
vt 0.250000 0.490000
vt 0.000000 1.000000
vt 0.968750 0.500000
vt 0.796822 0.485388
vt 0.968750 1.000000
vt 0.296822 0.485388
vt 0.937500 0.500000
vt 0.841844 0.471731
vt 0.937500 1.000000
vt 0.341844 0.471731
vt 0.906250 0.500000
vt 0.883337 0.449553
vt 0.906250 1.000000
vt 0.383337 0.449553
vt 0.875000 0.500000
vt 0.919706 0.419706
vt 0.875000 1.000000
vt 0.419706 0.419706
vt 0.843750 0.500000
vt 0.949553 0.383337
vt 0.843750 1.000000
vt 0.449553 0.383337
vt 0.812500 0.500000
vt 0.971731 0.341844
vt 0.812500 1.000000
vt 0.471731 0.341844
vt 0.781250 0.500000
vt 0.985388 0.296822
vt 0.781250 1.000000
vt 0.485388 0.296822
vt 0.750000 0.500000
vt 0.990000 0.250000
vt 0.750000 1.000000
vt 0.490000 0.250000
vt 0.718750 0.500000
vt 0.985388 0.203178
vt 0.718750 1.000000
vt 0.485388 0.203178
vt 0.687500 0.500000
vt 0.971731 0.158156
vt 0.687500 1.000000
vt 0.471731 0.158156
vt 0.656250 0.500000
vt 0.949553 0.116663
vt 0.656250 1.000000
vt 0.449553 0.116663
vt 0.625000 0.500000
vt 0.919706 0.080294
vt 0.625000 1.000000
vt 0.419706 0.080294
vt 0.593750 0.500000
vt 0.883337 0.050447
vt 0.593750 1.000000
vt 0.383337 0.050447
vt 0.562500 0.500000
vt 0.841844 0.028269
vt 0.562500 1.000000
vt 0.341844 0.028269
vt 0.531250 0.500000
vt 0.796822 0.014612
vt 0.531250 1.000000
vt 0.296822 0.014612
vt 0.500000 0.500000
vt 0.750000 0.010000
vt 0.500000 1.000000
vt 0.250000 0.010000
vt 0.468750 0.500000
vt 0.703178 0.014612
vt 0.468750 1.000000
vt 0.203178 0.014612
vt 0.437500 0.500000
vt 0.658156 0.028269
vt 0.437500 1.000000
vt 0.158156 0.028269
vt 0.406250 0.500000
vt 0.616663 0.050447
vt 0.406250 1.000000
vt 0.116663 0.050447
vt 0.375000 0.500000
vt 0.580294 0.080294
vt 0.375000 1.000000
vt 0.080294 0.080294
vt 0.343750 0.500000
vt 0.550447 0.116663
vt 0.343750 1.000000
vt 0.050447 0.116663
vt 0.312500 0.500000
vt 0.528269 0.158156
vt 0.312500 1.000000
vt 0.028269 0.158156
vt 0.281250 0.500000
vt 0.514612 0.203178
vt 0.281250 1.000000
vt 0.014612 0.203178
vt 0.250000 0.500000
vt 0.510000 0.250000
vt 0.250000 1.000000
vt 0.010000 0.250000
vt 0.218750 0.500000
vt 0.514612 0.296822
vt 0.218750 1.000000
vt 0.014612 0.296822
vt 0.187500 0.500000
vt 0.528269 0.341844
vt 0.187500 1.000000
vt 0.028269 0.341844
vt 0.156250 0.500000
vt 0.550447 0.383337
vt 0.156250 1.000000
vt 0.050447 0.383337
vt 0.125000 0.500000
vt 0.580294 0.419706
vt 0.125000 1.000000
vt 0.080294 0.419706
vt 0.093750 0.500000
vt 0.616663 0.449553
vt 0.093750 1.000000
vt 0.116663 0.449553
vt 0.062500 0.500000
vt 0.658156 0.471731
vt 0.158156 0.471731
vt 0.062500 1.000000
vt 0.031250 0.500000
vt 0.703178 0.485388
vt 0.203178 0.485388
vt 0.031250 1.000000
vt 0.079859 0.250000
vt 0.250000 0.893036
vt 0.092811 0.192635
vt 0.312500 0.893036
vt 0.083129 0.220756
vt 0.281250 0.893036
vt 0.083129 0.279244
vt 0.218750 0.893036
vt 0.108533 0.166720
vt 0.343750 0.893036
vt 0.108533 0.333280
vt 0.156250 0.893036
vt 0.092811 0.307365
vt 0.187500 0.893036
vt 0.129692 0.355996
vt 0.125000 0.893036
vt 0.184890 0.111510
vt 0.437500 0.893036
vt 0.155475 0.125362
vt 0.406250 0.893036
vt 0.155475 0.374638
vt 0.093750 0.893036
vt 0.216807 0.397021
vt 0.031250 0.893036
vt 0.283193 0.397021
vt 0.968750 0.893036
vt 0.250000 0.399901
vt 1.000000 0.893036
vt 0.000000 0.893036
vt 0.184890 0.388490
vt 0.062500 0.893036
vt 0.129692 0.144004
vt 0.375000 0.893036
vt 0.216807 0.102979
vt 0.468750 0.893036
vt 0.283193 0.102979
vt 0.531250 0.893036
vt 0.250000 0.100099
vt 0.500000 0.893036
vt 0.344525 0.374638
vt 0.906250 0.893036
vt 0.344525 0.125362
vt 0.593750 0.893036
vt 0.315110 0.388490
vt 0.937500 0.893036
vt 0.315110 0.111510
vt 0.562500 0.893036
vt 0.391467 0.333280
vt 0.843750 0.893036
vt 0.391467 0.166720
vt 0.656250 0.893036
vt 0.370308 0.355996
vt 0.875000 0.893036
vt 0.420141 0.250000
vt 0.750000 0.893036
vt 0.416871 0.279244
vt 0.781250 0.893036
vt 0.407189 0.192635
vt 0.687500 0.893036
vt 0.416871 0.220756
vt 0.718750 0.893036
vt 0.407189 0.307365
vt 0.812500 0.893036
vt 0.370308 0.144004
vt 0.625000 0.893036
vt 0.750000 0.399901
vt 1.000000 0.606964
vt 0.000000 0.606964
vt 0.783193 0.397020
vt 0.968750 0.606964
vt 0.815110 0.111510
vt 0.562500 0.606964
vt 0.844525 0.374638
vt 0.906250 0.606964
vt 0.844525 0.125362
vt 0.593750 0.606964
vt 0.783193 0.102979
vt 0.531250 0.606964
vt 0.815110 0.388490
vt 0.937500 0.606964
vt 0.891467 0.166720
vt 0.656250 0.606964
vt 0.870308 0.144004
vt 0.625000 0.606964
vt 0.891467 0.333280
vt 0.843750 0.606964
vt 0.920141 0.250000
vt 0.750000 0.606964
vt 0.916871 0.279244
vt 0.781250 0.606964
vt 0.907190 0.192635
vt 0.687500 0.606964
vt 0.916871 0.220756
vt 0.718750 0.606964
vt 0.907190 0.307365
vt 0.812500 0.606964
vt 0.870307 0.355996
vt 0.875000 0.606964
vt 0.579859 0.250000
vt 0.250000 0.606964
vt 0.592811 0.192635
vt 0.312500 0.606964
vt 0.583129 0.220756
vt 0.281250 0.606964
vt 0.583129 0.279244
vt 0.218750 0.606964
vt 0.608533 0.166720
vt 0.343750 0.606964
vt 0.608533 0.333280
vt 0.156250 0.606964
vt 0.629692 0.144004
vt 0.375000 0.606964
vt 0.592811 0.307365
vt 0.187500 0.606964
vt 0.684890 0.388490
vt 0.062500 0.606964
vt 0.655475 0.125362
vt 0.406250 0.606964
vt 0.655475 0.374638
vt 0.093750 0.606964
vt 0.716807 0.397021
vt 0.031250 0.606964
vt 0.750000 0.100099
vt 0.500000 0.606964
vt 0.716807 0.102979
vt 0.468750 0.606964
vt 0.684890 0.111510
vt 0.437500 0.606964
vt 0.629692 0.355996
vt 0.125000 0.606964
s 0
usemtl 
f 1/1/1 2/4/1 4/9/1 3/7/1
f 3/7/2 4/9/2 6/13/2 5/11/2
f 5/11/3 6/13/3 8/17/3 7/15/3
f 7/15/4 8/17/4 10/21/4 9/19/4
f 9/19/5 10/21/5 12/25/5 11/23/5
f 11/23/6 12/25/6 14/29/6 13/27/6
f 13/27/7 14/29/7 16/33/7 15/31/7
f 15/31/8 16/33/8 18/37/8 17/35/8
f 17/35/9 18/37/9 20/41/9 19/39/9
f 19/39/10 20/41/10 22/45/10 21/43/10
f 21/43/11 22/45/11 24/49/11 23/47/11
f 23/47/12 24/49/12 26/53/12 25/51/12
f 25/51/13 26/53/13 28/57/13 27/55/13
f 27/55/14 28/57/14 30/61/14 29/59/14
f 29/59/15 30/61/15 32/65/15 31/63/15
f 31/63/16 32/65/16 34/69/16 33/67/16
f 33/67/17 34/69/17 36/73/17 35/71/17
f 35/71/18 36/73/18 38/77/18 37/75/18
f 37/75/19 38/77/19 40/81/19 39/79/19
f 39/79/20 40/81/20 42/85/20 41/83/20
f 41/83/21 42/85/21 44/89/21 43/87/21
f 43/87/22 44/89/22 46/93/22 45/91/22
f 45/91/23 46/93/23 48/97/23 47/95/23
f 47/95/24 48/97/24 50/101/24 49/99/24
f 49/99/25 50/101/25 52/105/25 51/103/25
f 51/103/26 52/105/26 54/109/26 53/107/26
f 53/107/27 54/109/27 56/113/27 55/111/27
f 55/111/28 56/113/28 58/117/28 57/115/28
f 57/115/29 58/117/29 60/121/29 59/119/29
f 59/119/30 60/121/30 62/126/30 61/123/30
f 54/110/31 52/106/31 50/102/31 48/98/31 46/94/31 44/90/31 42/86/31 40/82/31 38/78/31 36/74/31 34/70/31 32/66/31 30/62/31 28/58/31 26/54/31 24/50/31 22/46/31 93/188/31 89/180/31 96/194/31 85/172/31 87/176/31 82/166/31 83/168/31 81/164/31 73/147/31 74/149/31 80/162/31 69/139/31 66/133/31 67/135/31 65/131/31 68/137/31 71/143/31
f 93/188/31 22/46/31 20/42/31 18/38/31 16/34/31 14/30/31 12/26/31 10/22/31 8/18/31 6/14/31 4/10/31 2/5/31 64/129/31 62/125/31 60/122/31 58/118/31 56/114/31 54/110/31 71/143/31 70/141/31 72/145/31 75/151/31 79/160/31 76/153/31 78/157/31 77/155/31 86/174/31 84/170/31 90/182/31 88/178/31 95/192/31 92/186/31 91/184/31 94/190/31
f 61/123/32 62/126/32 64/130/32 63/127/32
f 63/127/33 64/130/33 2/6/33 1/2/33
f 108/219/34 15/32/34 17/36/34 19/40/34 21/44/34 23/48/34 25/52/34 27/56/34 29/60/34 31/64/34 33/68/34 35/72/34 37/76/34 39/80/34 41/84/34 43/88/34 45/92/34 47/96/34 115/233/34 114/231/34 117/237/34 119/241/34 122/247/34 127/257/34 126/255/34 125/253/34 102/207/34 99/201/34 101/205/34 105/213/34 104/211/34 109/221/34 110/223/34 107/217/34
f 115/233/34 47/96/34 49/100/34 51/104/34 53/108/34 55/112/34 57/116/34 59/120/34 61/124/34 63/128/34 1/3/34 3/8/34 5/12/34 7/16/34 9/20/34 11/24/34 13/28/34 15/32/34 108/219/34 111/225/34 106/215/34 112/227/34 100/203/34 103/209/34 98/199/34 97/196/34 124/251/34 121/245/34 123/249/34 128/259/34 118/239/34 120/243/34 116/235/34 113/229/34
f 98/200/35 77/156/35 78/158/35 97/197/35
f 103/210/36 86/175/36 77/156/36 98/200/36
f 100/204/37 84/171/37 86/175/37 103/210/37
f 112/228/38 90/183/38 84/171/38 100/204/38
f 88/179/39 90/183/39 112/228/39 106/216/39
f 95/193/40 88/179/40 106/216/40 111/226/40
f 92/187/41 95/193/41 111/226/41 108/220/41
f 91/185/42 92/187/42 108/220/42 107/218/42
f 94/191/43 91/185/43 107/218/43 110/224/43
f 93/189/44 94/191/44 110/224/44 109/222/44
f 89/181/45 93/189/45 109/222/45 104/212/45
f 96/195/46 89/181/46 104/212/46 105/214/46
f 85/173/47 96/195/47 105/214/47 101/206/47
f 87/177/48 85/173/48 101/206/48 99/202/48
f 82/167/49 87/177/49 99/202/49 102/208/49
f 83/169/50 82/167/50 102/208/50 125/254/50
f 81/165/51 83/169/51 125/254/51 126/256/51
f 73/148/52 81/165/52 126/256/52 127/258/52
f 74/150/53 73/148/53 127/258/53 122/248/53
f 80/163/54 74/150/54 122/248/54 119/242/54
f 117/238/55 69/140/55 80/163/55 119/242/55
f 114/232/56 66/134/56 69/140/56 117/238/56
f 115/234/57 67/136/57 66/134/57 114/232/57
f 113/230/58 65/132/58 67/136/58 115/234/58
f 116/236/59 68/138/59 65/132/59 113/230/59
f 120/244/60 71/144/60 68/138/60 116/236/60
f 118/240/61 70/142/61 71/144/61 120/244/61
f 128/260/62 72/146/62 70/142/62 118/240/62
f 123/250/63 75/152/63 72/146/63 128/260/63
f 121/246/64 79/161/64 75/152/64 123/250/64
f 124/252/65 76/154/65 79/161/65 121/246/65
f 97/198/66 78/159/66 76/154/66 124/252/66
